<svg xmlns="http://www.w3.org/2000/svg" viewBox="0 0 1563.7 239.3"><path d="M311.4 143.1l97.2-.2v90.7h56.2V4.2h-56.2v87h-97.4v-87H255v229.4h56.2l.2-90.5zm399.5-88.4V4.1H512.1v229.4H711v-49.9H568.7v-41.5h126.6V91.8H568.7V54.7h142.2zm540.7 89.5c0 27-15.5 41.8-43.8 41.8h-8c-28.2 0-43.8-14.8-43.8-41.8V5.3h-57.2v139.6c0 29.5 10.2 53.9 29.5 70.6 17.9 15.5 42.7 23.7 71.5 23.7h8c28.8 0 53.5-8.2 71.5-23.7 19.3-16.7 29.5-41.1 29.5-70.6V5.3h-57.2v138.9zM947.3 0c-66.1 0-119.6 53.6-119.6 119.6 0 66.1 53.6 119.6 119.6 119.6 66.1 0 119.6-53.6 119.6-119.6S1013.3 0 947.3 0zm0 185.9c-36.6 0-66.3-29.7-66.3-66.3 0-36.6 29.7-66.3 66.3-66.3 36.6 0 66.3 29.7 66.3 66.3 0 36.7-29.7 66.3-66.3 66.3zM0 55.5h77.7v177.6H134V55.5h78.8V4.1H0v51.4zm1351 0h77.7v177.6h56.2V55.5h78.8V4.1H1351v51.4z" fill="#fff"/></svg>